HIERARCHY
ROOT Hips
{
  OFFSET 13.6774 106.653 -34.4427
  CHANNELS 6 Xposition Yposition Zposition Zrotation Xrotation Yrotation
  JOINT ToSpine
  {
    OFFSET -2.69724 7.43032 -0.144315
    CHANNELS 3 Zrotation Xrotation Yrotation
    JOINT Spine
    {
      OFFSET -0.0310711 10.7595 1.96963
      CHANNELS 3 Zrotation Xrotation Yrotation
      JOINT Spine1
      {
        OFFSET 19.9056 3.91189 0.764692
        CHANNELS 3 Zrotation Xrotation Yrotation
        JOINT Neck
        {
          OFFSET 25.9749 7.03908 -0.130764
          CHANNELS 3 Zrotation Xrotation Yrotation
          JOINT Head
          {
            OFFSET 9.52751 0.295786 -0.907742
            CHANNELS 3 Zrotation Xrotation Yrotation
            End Site
            {
              OFFSET 16.4037 0.713936 2.7358
            }
          }
        }
        JOINT LeftShoulder
        {
          OFFSET 17.7449 4.33886 11.7777
          CHANNELS 3 Zrotation Xrotation Yrotation
          JOINT LeftArm
          {
            OFFSET 0.911315 1.27913 9.80584
            CHANNELS 3 Zrotation Xrotation Yrotation
            JOINT LeftForeArm
            {
              OFFSET 28.6126 1.18197 -3.53199
              CHANNELS 3 Zrotation Xrotation Yrotation
              JOINT LeftHand
              {
                OFFSET 27.5088 0.0218783 0.327423
                CHANNELS 3 Zrotation Xrotation Yrotation
                End Site
                {
                  OFFSET 18.6038 -0.000155887 0.382096
                }
              }
            }
          }
        }
        JOINT RightShoulder
        {
          OFFSET 17.1009 2.89543 -12.2328
          CHANNELS 3 Zrotation Xrotation Yrotation
          JOINT RightArm
          {
            OFFSET 1.4228 0.178766 -10.211
            CHANNELS 3 Zrotation Xrotation Yrotation
            JOINT RightForeArm
            {
              OFFSET 28.733 1.87905 2.64907
              CHANNELS 3 Zrotation Xrotation Yrotation
              JOINT RightHand
              {
                OFFSET 27.4588 0.290562 -0.101845
                CHANNELS 3 Zrotation Xrotation Yrotation
                End Site
                {
                  OFFSET 17.8396 -0.255518 -0.000602873
                }
              }
            }
          }
        }
      }
    }
  }
  JOINT LeftUpLeg
  {
    OFFSET -5.61296 -2.22332 -10.2353
    CHANNELS 3 Zrotation Xrotation Yrotation
    JOINT LeftLeg
    {
      OFFSET 2.56703 -44.7417 -7.93097
      CHANNELS 3 Zrotation Xrotation Yrotation
      JOINT LeftFoot
      {
        OFFSET 3.16933 -46.5642 -3.96578
        CHANNELS 3 Zrotation Xrotation Yrotation
        JOINT LeftToeBase
        {
          OFFSET 0.346054 -6.02161 12.8035
          CHANNELS 3 Zrotation Xrotation Yrotation
          End Site
          {
            OFFSET 0.134235 -1.35082 5.13018
          }
        }
      }
    }
  }
  JOINT RightUpLeg
  {
    OFFSET -5.7928 -1.72406 10.6446
    CHANNELS 3 Zrotation Xrotation Yrotation
    JOINT RightLeg
    {
      OFFSET -2.57161 -44.7178 -7.85259
      CHANNELS 3 Zrotation Xrotation Yrotation
      JOINT RightFoot
      {
        OFFSET -3.10148 -46.5936 -4.03391
        CHANNELS 3 Zrotation Xrotation Yrotation
        JOINT RightToeBase
        {
          OFFSET -0.0828122 -6.13587 12.8035
          CHANNELS 3 Zrotation Xrotation Yrotation
          End Site
          {
            OFFSET -0.131328 -1.35082 5.13018
          }
        }
      }
    }
  }
}
MOTION
Frames: 12
Frame Time: 0.03333333333333333
0.0000 93.1000 0.0000 -74.7745 -8.8124 167.4652 -71.5312 -0.8707 87.7198 103.4317 66.6528 -11.7750 0.5764 17.6004 0.0640 -142.2681 8.9423 -157.7928 -144.2239 42.8640 -174.3458 -0.5751 -16.0180 -26.6389 -131.5890 -7.3955 -65.5182 4.2827 0.5091 -73.8341 -0.0227 -0.7117 0.1013 -1.4406 6.2609 23.2346 -51.7810 -19.9328 140.2317 7.5137 2.4747 106.8756 -0.2602 0.3552 -0.1367 -50.2394 6.3547 122.1846 -4.0484 48.7350 -12.5176 -15.3745 6.8375 3.3249 5.7339 -11.4019 -15.9070 -30.8935 -13.2483 77.7313 5.6932 59.6506 9.4328 -8.7353 15.0324 -0.0763 1.0595 -27.4074 -9.4650 
0.0000 93.1000 0.0000 -72.7763 -6.5381 170.9167 -71.6321 -0.8414 88.1351 101.5281 67.6198 -11.3971 0.9427 16.9742 1.8458 -144.5024 7.5699 -161.5538 -143.2623 41.5477 -174.3586 -0.4666 -15.3939 -25.7858 -136.5881 -6.4989 -66.4587 6.9056 0.1048 -76.9650 -0.1525 -0.4993 -0.1363 -1.6122 6.2114 23.0421 -51.0728 -20.7487 140.0815 9.3243 3.8584 109.2371 0.1001 -0.4598 -0.3833 -51.3048 5.2095 120.6162 -1.5698 41.0167 -1.7741 -8.9655 -2.3371 0.8864 6.2941 -10.0762 -16.2799 -25.7595 -9.5352 85.7230 8.2802 63.5165 15.1384 -6.9373 16.0697 -0.0586 -0.2740 -31.5388 -19.9582 
0.0000 93.1000 0.0000 -72.1927 -8.8258 172.7598 -71.5523 1.9891 88.5455 100.7420 67.3524 -11.0057 1.2259 16.7080 3.2831 -144.1592 6.1129 -165.1411 -141.8238 39.9596 -179.1600 0.5760 -15.0078 -27.0590 -140.4430 -5.6383 -70.3501 8.1350 1.7659 -78.2591 -0.2783 1.1276 1.0889 0.9196 5.4070 24.4954 -49.5980 -23.1764 142.3133 9.6764 3.0809 110.5917 -0.1127 -0.0134 1.3859 -50.9643 5.9167 118.7634 -0.0841 37.7051 0.4832 -2.9743 -7.7499 -2.6180 3.4911 -8.4607 -6.4775 -26.0120 -7.7363 90.9580 7.0195 61.9501 9.9528 -10.4305 12.8521 1.5370 2.9224 -32.5101 -23.8279 
0.0000 93.1000 0.0000 -72.9571 -11.0930 -182.3865 -71.6550 -0.0152 87.9611 97.7640 67.8972 -10.0705 0.4732 16.5103 4.6741 -142.6709 6.3651 -167.7224 -140.2993 40.0101 179.4751 -0.2301 -16.2660 -30.7073 -142.3945 -3.1760 -77.1918 10.3771 2.1175 -78.0982 -0.1268 -0.1520 0.1430 -1.0177 4.3939 27.7084 -49.2226 -23.1825 140.8009 9.9144 4.7352 112.1961 0.3668 -0.2555 0.4184 -47.9876 8.5561 112.9698 -1.2004 40.5554 0.8329 -1.0149 -13.2554 -2.2159 2.2297 -6.0033 -1.1260 -27.8954 -11.9207 92.9384 4.7052 59.6442 2.2864 -14.0128 9.6267 2.3790 0.2058 -25.7606 -23.6165 
0.0000 93.1000 0.0000 -72.1796 -14.5287 -178.0174 -71.4926 0.9903 88.0477 94.1593 67.8526 -8.2572 1.4293 16.7033 4.5431 -141.1230 6.5422 -171.4342 -141.4859 40.2651 175.2459 0.0571 -16.4489 -31.5199 -143.8943 0.6392 -83.4141 11.5006 3.1187 -75.9663 -0.2572 0.4983 0.1923 -0.2943 4.9597 30.1927 -48.7256 -24.7713 140.4737 8.3438 4.3167 113.6663 0.1205 -0.0557 0.7164 -44.5654 11.3276 110.8380 -2.6957 44.8332 -1.6239 -0.4968 -15.3738 -2.6829 0.8437 -4.9545 0.6665 -30.8979 -16.8797 92.5901 2.3335 55.3609 -3.0224 -17.9664 11.7937 2.9729 1.7272 -22.2500 -26.3229 
0.0000 93.1000 0.0000 -71.5213 -16.0406 -175.1928 -71.3551 -0.1206 87.8429 94.3161 69.5893 -7.5509 1.1857 18.0766 2.9502 -141.4274 6.9010 -172.2624 -141.4635 41.0388 175.0129 -1.3103 -17.4855 -33.6786 -142.9302 3.5713 -86.4122 12.3835 2.9084 -73.7650 -0.4831 -0.5511 -0.0407 -1.8400 5.7461 32.5343 -47.2964 -25.6620 141.0667 8.4446 4.3569 114.6979 -0.0919 -0.1078 -0.5136 -41.2062 15.3689 110.1091 -3.5691 50.2863 -3.7778 -0.6662 -16.4198 -1.8308 1.3199 -5.6607 2.7942 -35.0140 -18.5944 93.5463 2.0771 50.4027 -4.0062 -16.3507 13.1097 2.7431 0.4346 -17.7968 -21.8801 
0.0000 93.1000 0.0000 -72.6009 -15.2920 -174.6796 -71.3406 1.0004 87.9652 97.1647 70.7185 -7.8945 1.3708 20.0625 0.8364 -141.5699 7.1167 -170.9079 -143.6271 41.8019 -179.4389 -0.9755 -17.7190 -35.1095 -142.0398 4.6027 -86.4128 13.1152 4.2740 -73.5471 -0.0680 0.1723 0.2217 -0.9405 6.0690 32.2972 -48.2108 -25.3703 142.1399 8.2837 4.2802 113.2706 -0.2425 0.4331 0.6011 -39.2764 17.5631 108.6596 -3.9708 53.1562 -4.6272 -1.1191 -16.6801 -2.2980 1.9284 -6.7862 5.3313 -39.3470 -17.7217 95.7536 2.1503 44.7018 4.5720 -13.9931 16.5687 1.9268 1.5077 -22.1568 -19.2328 
0.0000 93.1000 0.0000 -72.3861 -14.1458 -173.3100 -71.2682 0.2988 87.8456 96.3074 70.8602 -6.9636 1.0214 20.8748 0.0611 -141.6746 6.3477 -166.9971 -145.9030 42.0212 -180.0316 -1.5548 -18.6570 -36.3307 -141.8681 4.7697 -85.4377 13.6619 3.9312 -74.5933 -0.2283 -0.0451 0.0955 -1.8426 6.5755 33.5550 -46.8379 -23.1001 143.2425 9.1344 4.1235 111.5130 0.0243 -0.0651 0.1285 -36.9123 18.7696 104.8893 -4.7352 55.5793 -3.1970 -0.6703 -17.8793 -2.1263 1.4981 -6.1204 7.1605 -41.1418 -17.7550 96.1381 3.2688 41.1115 9.9921 -9.8129 16.6140 0.8047 1.6528 -32.4639 -20.3243 
0.0000 93.1000 0.0000 -72.1610 -12.9783 -173.3592 -71.2822 -0.0642 87.9625 95.1643 71.9493 -6.0192 0.9265 22.4113 -1.1279 -142.7419 6.0511 -166.6504 -147.5148 41.2594 -177.3954 -1.7264 -18.4489 -36.9232 -141.1737 5.4242 -83.2834 13.0621 2.9994 -75.5859 -0.1389 -0.2222 0.3466 -2.0440 6.9754 36.4297 -46.6129 -20.1912 143.2869 8.6381 3.2720 110.4473 0.0953 0.3747 0.3442 -35.8999 18.8609 103.1121 -4.9746 56.6547 -1.9855 -1.1426 -17.7853 -1.8929 0.9005 -5.8956 7.4011 -43.0879 -17.6180 93.2725 1.7997 39.1855 8.5555 -8.0183 11.6281 0.4976 1.0985 -34.0586 -13.9521 
0.0000 93.1000 0.0000 -71.6603 -11.8397 -173.5325 -71.2346 -0.0606 87.9891 94.2056 72.6231 -5.0239 1.5812 23.3056 -1.2552 -141.8610 5.2225 -168.5633 -147.1386 41.0531 -177.5197 -1.9029 -18.9749 -37.8093 -140.8584 3.0090 -81.4203 12.8520 2.9284 -75.6210 -0.2979 -0.1164 0.2174 -1.9503 7.3404 37.4796 -46.6624 -19.8088 144.1148 7.6764 3.1808 109.1130 0.1065 0.0286 0.1084 -35.9124 19.7392 101.3502 -4.7102 57.4141 -1.0796 -1.0366 -17.3302 -2.0658 -0.0430 -3.9505 6.4284 -44.3632 -17.8520 89.1137 2.6756 37.5114 9.5038 -9.5455 9.8007 1.0219 1.3940 -36.9465 -20.0665 
0.0000 93.1000 0.0000 -72.6363 -10.8697 -174.4050 -71.2175 -0.0480 88.0355 95.3825 72.6986 -6.0301 1.6047 24.0553 -2.0162 -141.9575 5.1140 -167.7488 -147.1836 40.4706 -176.5122 -2.1490 -18.9083 -38.7854 -141.1169 1.4934 -79.3873 11.2673 2.9088 -75.5172 -0.1050 -0.3040 0.2141 -2.0567 7.4249 38.4911 -46.3532 -18.6012 145.3005 7.7702 2.4789 107.9450 0.0094 0.2786 0.0182 -36.0775 20.7866 100.9682 -4.9126 57.4064 -1.6368 -0.1210 -16.7644 -2.0227 -0.6695 -2.3643 8.3847 -45.2250 -17.7936 85.1168 2.1442 36.7005 9.8328 -12.7429 6.5767 1.2810 0.5823 -36.4581 -19.3789 
0.0000 93.1000 0.0000 -72.7837 -10.8420 -174.3908 -71.1863 0.1766 88.0510 94.4912 72.5907 -5.1387 1.5423 24.0971 -2.1513 -141.0534 4.3157 -167.5675 -148.7047 39.9410 -175.4546 -2.1367 -19.0097 -38.9951 -140.7296 0.6439 -77.3863 10.2115 2.2581 -75.4192 0.1224 -0.2464 0.2320 -1.9383 7.1264 38.5124 -44.5147 -17.7916 145.2972 9.1959 3.0360 106.9999 -0.2627 0.3551 0.0209 -36.6246 22.3606 100.8529 -4.6683 56.7644 -2.7353 -0.4200 -15.6756 -1.9638 0.1822 -4.0153 9.2205 -46.1029 -16.7946 84.0523 1.0308 36.0442 9.5070 -14.9387 3.0852 1.7844 0.2755 -33.1384 -20.0382 
